<svg id="visual" viewBox="0 0 900 400" width="900" height="400" xmlns="http://www.w3.org/2000/svg" xmlns:xlink="http://www.w3.org/1999/xlink" version="1.1"><path d="M0 61L21.5 62.5C43 64 86 67 128.8 74.3C171.7 81.7 214.3 93.3 257.2 94.8C300 96.3 343 87.7 385.8 79.7C428.7 71.7 471.3 64.3 514.2 66.7C557 69 600 81 642.8 86.2C685.7 91.3 728.3 89.7 771.2 88.7C814 87.7 857 87.3 878.5 87.2L900 87L900 0L878.5 0C857 0 814 0 771.2 0C728.3 0 685.7 0 642.8 0C600 0 557 0 514.2 0C471.3 0 428.7 0 385.8 0C343 0 300 0 257.2 0C214.3 0 171.7 0 128.8 0C86 0 43 0 21.5 0L0 0Z" fill="#E5D6C2" stroke-linecap="round" stroke-linejoin="miter"></path></svg>