<svg id="visual" viewBox="0 0 960 250" width="960" height="200" xmlns="http://www.w3.org/2000/svg" xmlns:xlink="http://www.w3.org/1999/xlink" version="1.1"><path d="M0 142L22.8 137.5C45.7 133 91.3 124 137 121C182.7 118 228.3 121 274 127.7C319.7 134.3 365.3 144.7 411.2 144.2C457 143.7 503 132.3 548.8 135C594.7 137.7 640.3 154.3 686 149.8C731.7 145.3 777.3 119.7 823 119C868.7 118.3 914.3 142.7 937.2 154.8L960 167L960 0L937.2 0C914.3 0 868.7 0 823 0C777.3 0 731.7 0 686 0C640.3 0 594.7 0 548.8 0C503 0 457 0 411.2 0C365.3 0 319.7 0 274 0C228.3 0 182.7 0 137 0C91.3 0 45.7 0 22.8 0L0 0Z" fill="#E5D6C2" stroke-linecap="round" stroke-linejoin="miter"></path></svg>