<svg id="visual" viewBox="0 0 900 300" width="900" height="300" xmlns="http://www.w3.org/2000/svg" xmlns:xlink="http://www.w3.org/1999/xlink" version="1.1"><path d="M0 142L21.5 127.5C43 113 86 84 128.8 82.5C171.7 81 214.3 107 257.2 111C300 115 343 97 385.8 91.5C428.7 86 471.3 93 514.2 92.7C557 92.3 600 84.7 642.8 80.8C685.7 77 728.3 77 771.2 86.3C814 95.7 857 114.3 878.5 123.7L900 133L900 0L878.5 0C857 0 814 0 771.2 0C728.3 0 685.7 0 642.8 0C600 0 557 0 514.2 0C471.3 0 428.7 0 385.8 0C343 0 300 0 257.2 0C214.3 0 171.7 0 128.8 0C86 0 43 0 21.5 0L0 0Z" fill="#E5D6C2" stroke-linecap="round" stroke-linejoin="miter"></path></svg>