<svg id="visual" viewBox="0 0 960 540" width="960" height="540" xmlns="http://www.w3.org/2000/svg" xmlns:xlink="http://www.w3.org/1999/xlink" version="1.1"><path d="M0 96L22.8 99.2C45.7 102.3 91.3 108.7 137 107.5C182.7 106.3 228.3 97.7 274 99.8C319.7 102 365.3 115 411.2 122.2C457 129.3 503 130.7 548.8 124C594.7 117.3 640.3 102.7 686 101.3C731.7 100 777.3 112 823 118.3C868.7 124.7 914.3 125.3 937.2 125.7L960 126L960 0L937.2 0C914.3 0 868.7 0 823 0C777.3 0 731.7 0 686 0C640.3 0 594.7 0 548.8 0C503 0 457 0 411.2 0C365.3 0 319.7 0 274 0C228.3 0 182.7 0 137 0C91.3 0 45.7 0 22.8 0L0 0Z" fill="#E5D6C2" stroke-linecap="round" stroke-linejoin="miter"></path></svg>